<?xml version="1.0" encoding="UTF-8" standalone="no"?>
<svg
   xmlns:dc="http://purl.org/dc/elements/1.1/"
   xmlns:cc="http://creativecommons.org/ns#"
   xmlns:rdf="http://www.w3.org/1999/02/22-rdf-syntax-ns#"
   xmlns:svg="http://www.w3.org/2000/svg"
   xmlns="http://www.w3.org/2000/svg"
   version="1.1"
   id="svg2"
   viewBox="0 0 24 24"
   height="24"
   width="24">
  <metadata
     id="metadata10">
    <rdf:RDF>
      <cc:Work
         rdf:about="">
        <dc:format>image/svg+xml</dc:format>
        <dc:type
           rdf:resource="http://purl.org/dc/dcmitype/StillImage" />
        <dc:title></dc:title>
      </cc:Work>
    </rdf:RDF>
  </metadata>
  <defs
     id="defs8" />
  <path
     style="fill:#ccc;fill-opacity:1;stroke:none;stroke-opacity:1"
     id="path4"
     d="M23.822 20.88l-6.353-6.354c.93-1.465 1.467-3.2 1.467-5.059.001-5.219-4.247-9.467-9.468-9.467s-9.468 4.248-9.468 9.468c0 5.221 4.247 9.469 9.468 9.469 1.768 0 3.421-.487 4.839-1.333l6.396 6.396 3.119-3.12zm-20.294-11.412c0-3.273 2.665-5.938 5.939-5.938 3.275 0 5.94 2.664 5.94 5.938 0 3.275-2.665 5.939-5.94 5.939-3.274 0-5.939-2.664-5.939-5.939z" />
</svg>